<?xml version="1.0" encoding="UTF-8"?>
<svg version="1.1" xmlns="http://www.w3.org/2000/svg" width="1254" height="1254">
<path d="M0 0 C413.82 0 827.64 0 1254 0 C1254 413.82 1254 827.64 1254 1254 C840.18 1254 426.36 1254 0 1254 C0 840.18 0 426.36 0 0 Z " fill="#B28101" transform="translate(0,0)"/>
<path d="M0 0 C413.49 0 826.98 0 1253 0 C1249.10042652 5.19943131 1245.54792496 9.73162341 1240.97265625 14.1875 C1240.42065048 14.7343042 1239.86864471 15.2811084 1239.2999115 15.84448242 C1237.55889635 17.56792181 1235.81127611 19.28443924 1234.0625 21 C1231.75827922 23.26737119 1229.45735008 25.53800957 1227.16015625 27.8125 C1226.60655426 28.3605127 1226.05295227 28.90852539 1225.48257446 29.47314453 C1222.10903488 32.83409461 1218.93461169 36.29708639 1215.84936523 39.92578125 C1210.9746882 45.39314179 1205.60884495 50.43733771 1200.39746094 55.58203125 C1193.31536385 62.51322445 1193.31536385 62.51322445 1186.65625 69.84375 C1180.43064462 77.13961683 1173.34560502 83.7049327 1166.53369141 90.44580078 C1164.61408658 92.34715567 1162.69762101 94.25163664 1160.78125 96.15625 C1159.91687317 97.00817932 1159.91687317 97.00817932 1159.03503418 97.87731934 C1156.08947172 100.8054285 1153.27522509 103.79384344 1150.5612793 106.9387207 C1146.96838442 111.09313581 1143.1446567 114.96599909 1139.23828125 118.82421875 C1138.52520309 119.53351028 1137.81212494 120.24280182 1137.07743835 120.97358704 C1134.824899 123.21403081 1132.56912519 125.45117211 1130.3125 127.6875 C1127.32651003 130.64682084 1124.34390129 133.60949051 1121.36328125 136.57421875 C1120.68405106 137.2451506 1120.00482086 137.91608246 1119.30500793 138.60734558 C1116.58639728 141.31187607 1114.04190502 143.94680933 1111.66479492 146.96411133 C1111.1154126 147.63595459 1110.56603027 148.30779785 1110 149 C1109.34 149 1108.68 149 1108 149 C1107.73487106 149.59077332 1107.46974213 150.18154663 1107.19657898 150.79022217 C1105.96231302 153.0695983 1104.69377154 154.54187023 1102.85473633 156.35644531 C1101.89782646 157.30828705 1101.89782646 157.30828705 1100.92158508 158.27935791 C1100.23203232 158.95545105 1099.54247955 159.63154419 1098.83203125 160.328125 C1098.11899338 161.0359613 1097.40595551 161.74379761 1096.67131042 162.4730835 C1094.38973806 164.73685772 1092.10161658 166.99385671 1089.8125 169.25 C1087.54206125 171.49266506 1085.27315071 173.73682159 1083.00724792 175.98406982 C1081.59870969 177.38052401 1080.18750874 178.77429967 1078.77314758 180.16485596 C1074.92460281 183.97495116 1071.30686066 187.90335036 1067.77055359 192.00335693 C1064.70360935 195.46193226 1061.41229572 198.68999176 1058.125 201.9375 C1057.03276123 203.02405884 1057.03276123 203.02405884 1055.91845703 204.13256836 C1052.83943049 207.19542424 1049.75441677 210.25222311 1046.66992188 213.30957031 C1044.40284542 215.55844117 1042.13887034 217.81040238 1039.875 220.0625 C1039.18937988 220.73982178 1038.50375977 221.41714355 1037.79736328 222.11499023 C1034.65456708 225.2419993 1031.61497139 228.39823258 1028.73242188 231.76757812 C1024.41323819 236.77168091 1019.71823171 241.39393461 1015.02885437 246.04631042 C1013.36886941 247.69333883 1011.71219765 249.34363952 1010.05627441 250.99475098 C1005.94587777 255.09189552 1001.83000966 259.18352904 997.71429443 263.27532959 C994.22481779 266.74495724 990.73747892 270.21670797 987.25285339 273.69120789 C985.63373229 275.30392583 984.01159216 276.91356218 982.38928223 278.52307129 C976.32897007 284.54604243 976.32897007 284.54604243 970.609375 290.890625 C965.89693109 296.39592168 960.68540323 301.42454609 955.54728699 306.52787781 C953.61848237 308.44376469 951.69295397 310.36289273 949.76818848 312.28283691 C944.98997561 317.04777408 940.20630184 321.80721655 935.42279053 326.5668335 C931.36964716 330.60015475 927.31862108 334.63558074 923.27030945 338.67375183 C921.38527224 340.55236917 919.49721902 342.42791748 917.60900879 344.30334473 C912.40610498 349.48427029 907.28725675 354.6584718 902.52307129 360.2520752 C899.83385242 363.33830786 896.91328762 366.18963111 894 369.0625 C893.360625 369.69808838 892.72125 370.33367676 892.0625 370.98852539 C889.36581517 373.66908015 886.6631227 376.34354664 883.9609375 379.01855469 C881.97183897 380.98941341 879.98587103 382.96339005 878 384.9375 C877.1028125 385.82223999 877.1028125 385.82223999 876.1875 386.72485352 C875.61 387.29905029 875.0325 387.87324707 874.4375 388.46484375 C873.8984966 388.99821492 873.3594932 389.53158608 872.80415636 390.08112001 C870.96855802 391.959284 870.96855802 391.959284 869.46962398 394.06140852 C865.32445828 399.54799006 865.32445828 399.54799006 861.85062516 400.73353672 C859.34397634 401.00645114 856.94721961 401.02920261 854.42652893 400.96203613 C853.00873191 400.97228923 853.00873191 400.97228923 851.56229252 400.98274946 C848.40429606 400.99589698 845.24972244 400.95198691 842.09204102 400.90820312 C839.82502828 400.90594587 837.5580097 400.90721448 835.29100037 400.91174316 C829.14233761 400.91403825 822.99492372 400.86700933 816.84655118 400.8111515 C810.41908175 400.76113621 803.99158359 400.75644126 797.56394958 400.74694824 C786.77747907 400.72490944 775.99155438 400.67494301 765.20532227 400.60351562 C754.09759772 400.53003597 742.98999826 400.47352392 731.88208008 400.43945312 C730.84385551 400.43623716 730.84385551 400.43623716 729.7846567 400.43295622 C723.76355152 400.41445239 717.74244283 400.39723049 711.7213335 400.38013458 C685.8137916 400.30491358 659.90746322 400.14553619 634 400 C634 435.64 634 471.28 634 508 C672.28 508 710.56 508 750 508 C750 510.64 750 513.28 750 516 C749.01 516.33 748.02 516.66 747 517 C747 517.66 747 518.32 747 519 C745.37467091 520.72900992 743.71374375 522.36125733 742 524 C740.71762637 525.27487241 739.43813115 526.55264351 738.16075134 527.83251953 C736.64094834 529.34929186 735.12113678 530.86605562 733.60131836 532.3828125 C725.11788148 540.84989278 716.63698571 549.31951302 708.15756893 557.7906189 C703.02982176 562.91320365 697.90113252 568.0348387 692.77026367 573.15429688 C688.28157424 577.6330093 683.79465437 582.11348574 679.30983645 586.59607506 C676.94015693 588.96445423 674.56935494 591.33168238 672.19694328 593.69732666 C669.55206012 596.33495882 666.91031491 598.97569581 664.26928711 601.6171875 C663.48735992 602.39551941 662.70543274 603.17385132 661.89981079 603.97576904 C658.36706364 607.51524345 655.09006289 611.06172625 652 615 C650.34468208 616.67793866 648.67604278 618.34276249 647 620 C646.10121722 620.89878278 645.20243444 621.79756556 644.27641582 622.72358418 C600.18427722 666.81572278 556.09213861 710.90786139 512 755 C511.01 754.67 510.02 754.34 509 754 C505.93448359 746.4336809 505.57290301 738.41136379 505.65942383 730.35644531 C505.65898575 729.26229309 505.65854767 728.16814087 505.65809631 727.04083252 C505.66016524 723.46974037 505.68340632 719.89913384 505.70703125 716.328125 C505.71263395 713.83421078 505.71690086 711.34029323 505.71989441 708.84637451 C505.73129006 702.31651522 505.76071155 695.78685952 505.79400635 689.25708008 C505.83218633 681.40416222 505.84389354 673.55113511 505.86136627 665.69815063 C505.89035212 653.79862596 505.94787674 641.89954706 506 630 C536.69 630 567.38 630 599 630 C599 599.31 599 568.62 599 537 C568.64 537 538.28 537 507 537 C507 502.02 507 467.04 507 431 C472.02 431 437.04 431 401 431 C401 465.98 401 500.96 401 537 C383.18 537 365.36 537 347 537 C347 567.69 347 598.38 347 630 C364.49 630 381.98 630 400 630 C400.01981934 633.733125 400.03963867 637.46625 400.06005859 641.3125 C400.12718508 653.69375469 400.20472486 666.07492621 400.28752708 678.45608521 C400.33744288 685.95735682 400.38388631 693.45861865 400.421875 700.95996094 C400.45503242 707.50550821 400.49499043 714.05097444 400.54279006 720.59643173 C400.56782172 724.05549444 400.58966874 727.51450502 400.60334396 730.97363281 C400.66006305 744.78750831 400.75081308 758.34547829 403 772 C403.20435749 773.53742564 403.40659362 775.07513683 403.60546875 776.61328125 C406.81973727 797.04222275 415.15535749 818.37469607 429 834 C427.48288863 837.5663848 425.39647391 839.85130258 422.66494656 842.57835579 C421.74893152 843.49773623 420.83291648 844.41711666 419.88914341 845.36435711 C418.86607921 846.38102429 417.84292375 847.39759962 416.81968689 848.41409302 C415.73754696 849.49638896 414.65584805 850.57912602 413.57455355 851.66226661 C410.59826834 854.64108791 407.61577692 857.61362742 404.63226449 860.5852077 C401.41730994 863.78948569 398.20813227 866.99953992 394.99827576 870.20892334 C389.43463797 875.77019716 383.86740211 881.32784791 378.29777336 886.88312149 C370.2434018 894.91683141 362.19501811 902.95651846 354.14819009 910.99778341 C341.09102311 924.0456908 328.02976104 937.08949057 314.96557617 950.13037109 C314.18342842 950.91112554 313.40128066 951.69187998 312.59543145 952.49629365 C311.81228615 953.27804342 311.02914085 954.05979319 310.22226387 954.86523235 C299.11515252 965.95256967 288.00901459 977.04088084 276.90405273 988.13037109 C276.12255074 988.91078223 275.34104875 989.69119338 274.53586488 990.49525334 C261.5220153 1003.49110203 248.51018044 1016.48896671 235.49938208 1029.4878701 C227.46792741 1037.51172017 219.43439772 1045.53348279 211.39820398 1053.55258654 C205.89657472 1059.04267709 200.39661721 1064.53443839 194.89798968 1070.02753533 C191.72150342 1073.20067905 188.54416402 1076.3729571 185.36464691 1079.54306412 C182.45800451 1082.44111905 179.55362971 1085.34142597 176.65108795 1088.24358772 C175.59683571 1089.29686873 174.54172065 1090.34928692 173.48568975 1091.40078463 C172.05790722 1092.8226694 170.63345819 1094.24789922 169.2092123 1095.67332649 C168.41478236 1096.46629257 167.62035241 1097.25925865 166.80184883 1098.07625401 C164.94169653 1099.87907744 164.94169653 1099.87907744 164 1102 C163.34 1102 162.68 1102 162 1102 C161.67 1102.99 161.34 1103.98 161 1105 C156.68181818 1109.77272727 156.68181818 1109.77272727 153 1111 C152.67 1111.99 152.34 1112.98 152 1114 C150.37794256 1115.71011263 148.70286657 1117.37033715 147 1119 C145.11636327 1120.90710792 143.23438534 1122.81574128 141.35435486 1124.72639465 C140.21758275 1125.88075966 139.08077038 1127.03508502 137.94392395 1128.18937683 C137.34196009 1128.80064611 136.73999622 1129.4119154 136.11979103 1130.04170799 C122.24468994 1144.12924718 108.33509126 1158.18230134 94.40564632 1172.21609974 C86.35689596 1180.32677989 78.31980792 1188.44842324 70.30883789 1196.59643555 C63.31014238 1203.71479319 56.29055443 1210.81175178 49.24515921 1217.88390273 C45.52010891 1221.62457614 41.80629097 1225.37502707 38.11738396 1229.15137672 C34.64736883 1232.70298855 31.15005742 1236.22525324 27.63002014 1239.72727203 C26.34569299 1241.014893 25.07156979 1242.31278847 23.80885506 1243.62161064 C22.07743166 1245.4130902 20.31241153 1247.16331046 18.53453064 1248.90852356 C18.04761732 1249.43039098 17.56070399 1249.9522584 17.05903572 1250.48993999 C11.4909383 1255.78712511 8.91227197 1254 0 1254 C0 840.18 0 426.36 0 0 Z " fill="#E2A701" transform="translate(0,0)"/>
<path d="M0 0 C113.19 0 226.38 0 343 0 C343 34.98 343 69.96 343 106 C304.72 106 266.44 106 227 106 C227 229.09 227 352.18 227 479 C190.04 479 153.08 479 115 479 C115 355.91 115 232.82 115 106 C77.05 106 39.1 106 0 106 C0 71.02 0 36.04 0 0 Z " fill="#031D40" transform="translate(635,401)"/>
<path d="M0 0 C34.98 0 69.96 0 106 0 C106 34.98 106 69.96 106 106 C136.36 106 166.72 106 198 106 C198 136.69 198 167.38 198 199 C167.31 199 136.62 199 105 199 C105.09090521 218.6133906 105.09090521 218.6133906 105.20898438 238.2265625 C105.26320454 246.23208245 105.31431883 254.23752103 105.34643555 262.24316406 C105.37254449 268.70126386 105.41300084 275.15913232 105.46318626 281.61708832 C105.47980365 284.07446148 105.49134972 286.5318746 105.49761391 288.98929596 C105.50731072 292.44525608 105.53543724 295.90063112 105.56762695 299.35644531 C105.56619186 300.36058472 105.56475677 301.36472412 105.5632782 302.39929199 C105.65756491 309.610067 106.99638136 316.08571866 109 323 C109.31832778 324.11854811 109.31832778 324.11854811 109.64308643 325.25969315 C112.12610953 333.48213897 117.72985019 340.99676391 125 345.5 C126.6487849 346.36817657 128.31477027 347.2048755 130 348 C130.64582031 348.32613281 131.29164063 348.65226562 131.95703125 348.98828125 C141.8969144 353.40368197 154.30373026 352.16361885 164.95068359 352.13037109 C167.02578793 352.12493241 169.10068276 352.13039668 171.17578125 352.13671875 C172.5130213 352.13605909 173.85026123 352.13478025 175.1875 352.1328125 C176.37730469 352.13168457 177.56710937 352.13055664 178.79296875 352.12939453 C181.87958007 352.0962418 181.87958007 352.0962418 184.36328125 351.49169922 C188.17985447 350.77997899 192.11763258 351 196 351 C196 379.38 196 407.76 196 437 C175.19275473 441.95410602 157.04795613 445.53853 136.01196289 445.44604492 C133.06781342 445.43751539 130.12560153 445.46647559 127.18164062 445.49804688 C98.68217931 445.60219887 67.66262873 438.10653699 45 420 C44.10152344 419.31292969 43.20304687 418.62585938 42.27734375 417.91796875 C16.58652385 397.739897 4.29155886 367.65809391 0 336 C-0.90085382 328.04480944 -1.13878938 320.18606932 -1.11352539 312.18481445 C-1.11367142 310.95425827 -1.11381744 309.72370209 -1.1139679 308.45585632 C-1.11339512 305.11774626 -1.10841802 301.77969986 -1.10139394 298.44160104 C-1.09509588 294.93960019 -1.09455154 291.43759829 -1.09336853 287.93559265 C-1.09027409 281.32024827 -1.08208642 274.70492062 -1.07201904 268.08958358 C-1.06079894 260.55138476 -1.05533266 253.0131851 -1.05032361 245.47498 C-1.03990201 229.98330868 -1.02158029 214.4916604 -1 199 C-18.49 199 -35.98 199 -54 199 C-54 168.31 -54 137.62 -54 106 C-36.18 106 -18.36 106 0 106 C0 71.02 0 36.04 0 0 Z " fill="#041E3F" transform="translate(401,431)"/>
</svg>
